PathFileType	4	(X/Y/Z)	D:\TRACE\v60_Jaco2_6-2-23\v60_baseline_4-platform.trc
DataRate	CameraRate	NumFrames	NumMarkers	Units	OrigDataRate	OrigDataStartFrame	OrigNumFrames
100.00	100.00	      56	5	mm	100.00	813	      6500
Frame#	Time	Left_Front			Right_Front			Left_Aft			Right_Aft			Post			
		X1	Y1	Z1	X2	Y2	Z2	X3	Y3	Z3	X4	Y4	Z4	X5	Y5	Z5	

813	8.120	-800.48755	9.02210	-638.83258	769.40088	10.11707	-644.38470	-709.20386	8.41086	496.16196	733.30688	6.94623	505.56693	-14.16172	1308.14624	-961.80267	
814	8.130	-800.45459	9.07326	-638.83984	769.44025	10.14429	-644.40082	-709.06354	8.34220	496.30859	733.37488	6.92456	505.56027	-14.17373	1308.19946	-961.88837	
815	8.140	-800.53137	8.97877	-638.77734	769.31317	10.22469	-644.44733	-709.16400	8.32757	496.36243	733.35461	6.97441	505.53308	-14.13268	1308.27686	-961.89069	
816	8.150	-800.58087	8.91372	-638.78290	769.36420	10.18537	-644.45062	-709.24268	8.30429	496.33685	733.24359	6.95043	505.52661	-14.06476	1308.15649	-961.84833	
817	8.160	-800.53973	8.91125	-638.83240	769.33887	10.25881	-644.47687	-709.23810	8.40114	496.32767	733.14087	6.87100	505.58783	-14.13510	1308.13831	-961.86383	
818	8.170	-800.47101	9.13783	-638.75787	769.34961	10.26729	-644.45020	-708.73700	8.03506	496.09448	733.15881	6.85011	505.60309	-14.04070	1308.14441	-961.84393	
819	8.180	-800.51563	8.93044	-638.82062	769.27448	10.17506	-644.43390	-708.69073	8.05917	496.13715	733.24951	6.82958	505.59003	-14.16080	1308.27747	-961.90753	
820	8.190	-800.60614	8.67647	-638.88739	769.40820	10.09009	-644.33472	-708.68298	8.10865	496.11191	733.33966	6.91056	505.56717	-14.10257	1308.17786	-961.88928	
821	8.200	-800.63293	8.62928	-638.86560	769.42334	10.06017	-644.35919	-708.79694	8.01223	496.06451	732.93201	6.59961	505.39178	-14.00511	1308.09045	-961.77209	
822	8.210	-800.63904	8.67383	-638.86218	769.31274	10.25982	-644.46143	-708.26422	7.37469	496.18979	733.40295	6.83949	505.84555	-13.88101	1308.00110	-961.83148	
823	8.220	-800.54065	8.89259	-638.76221	769.33154	10.21437	-644.46375	-708.16547	7.48771	496.10510	733.08795	6.96261	506.02676	-14.02059	1308.07605	-961.89081	
824	8.230	-800.46790	9.00910	-638.79608	769.39807	10.16311	-644.44843	-708.71167	8.10415	496.09106	733.48737	6.97321	505.83054	-14.08383	1308.19287	-961.97888	
825	8.240	-800.52576	8.91324	-638.83142	769.40057	10.23394	-644.41241	-708.72015	8.16100	496.06210	733.51636	6.98083	505.83145	-14.06363	1308.27869	-962.02728	
826	8.250	-800.64075	8.73507	-638.85284	769.39716	10.19067	-644.39301	-709.29730	8.55309	496.24640	733.47052	6.97415	505.83084	-14.02749	1308.19238	-962.00604	
827	8.260	-800.58228	8.67888	-638.85327	769.29907	10.18340	-644.39081	-709.36157	8.49144	496.24127	733.31104	6.81096	505.89526	-14.05656	1308.06885	-961.92365	
828	8.270	-800.57233	8.91495	-638.78180	769.39386	10.18661	-644.38226	-708.72974	7.92850	496.11722	733.36499	6.81243	505.91843	-14.02768	1308.10962	-961.95258	
829	8.280	-800.50244	8.94063	-638.75043	769.38715	10.21461	-644.36945	-708.72229	8.07912	496.09439	733.52386	6.94196	505.94968	-14.08158	1308.19824	-961.91370	
830	8.290	-800.52789	8.97118	-638.76080	769.33105	10.31418	-644.40894	-708.66003	8.08305	496.11383	733.87122	7.27127	505.92728	-14.12216	1308.27405	-961.79688	
831	8.300	-800.57745	8.89215	-638.83008	769.39197	10.23958	-644.45404	-708.75873	8.14699	495.91632	734.06049	7.50764	505.88120	-14.14734	1308.27661	-961.73279	
832	8.310	-800.58093	8.80955	-638.86353	769.33533	10.22872	-644.43683	-708.67621	7.80941	496.09271	733.21765	6.84608	505.54581	-13.97661	1308.14917	-961.68860	
833	8.320	-800.62891	8.77402	-638.80621	769.33331	10.17970	-644.40485	-708.59369	7.66066	496.14246	733.14569	6.79958	505.57629	-14.07311	1308.06982	-961.70825	
834	8.330	-800.49957	8.72510	-638.84631	769.38416	10.15440	-644.44354	-708.53491	7.73948	496.12103	733.16174	6.78535	505.55457	-14.05938	1308.07935	-961.85516	
835	8.340	-800.51599	8.96810	-638.75659	769.38214	10.22849	-644.43762	-708.47705	7.78900	496.12741	733.25116	6.82280	505.54047	-14.00636	1308.22485	-961.96021	
836	8.350	-800.52643	9.01678	-638.77881	769.44189	10.26582	-644.39819	-708.51031	7.81377	496.10907	733.34631	6.87413	505.55991	-14.01385	1308.24597	-962.04565	
837	8.360	-800.59839	8.87389	-638.84631	769.42615	10.24666	-644.37549	-708.58258	7.72470	496.13593	733.25183	6.84436	505.60159	-14.08252	1308.24609	-962.08435	
838	8.370	-800.60248	8.68937	-638.83325	769.45062	10.18619	-644.33087	-708.83252	7.93714	495.96927	733.18719	6.80839	505.61368	-13.95353	1308.10632	-961.91064	
839	8.380	-800.64355	8.69602	-638.78931	769.40277	10.14724	-644.37598	-708.80353	8.00559	496.08981	733.12085	6.78362	505.63583	-14.04375	1308.03247	-961.87457	
840	8.390	-800.56482	8.89267	-638.73816	769.38953	10.14269	-644.39093	-708.69751	8.06499	496.12646	733.50348	6.99338	505.94098	-14.07740	1308.03625	-961.78894	
841	8.400	-800.56537	8.95528	-638.77991	769.37024	10.20206	-644.46472	-708.61218	8.01203	496.16730	733.49072	6.96782	505.77643	-14.04721	1308.25281	-961.81519	
842	8.410	-800.61005	8.96928	-638.72668	769.38788	10.27499	-644.41852	-708.60931	8.03124	496.15860	733.44440	6.87732	505.80713	-14.09271	1308.19727	-961.87384	
843	8.420	-800.61469	8.76790	-638.81763	769.42517	10.26078	-644.44318	-708.73059	8.00437	496.10953	733.46979	6.88061	505.83554	-13.97927	1308.12793	-961.81384	
844	8.430	-800.61658	8.72222	-638.83734	769.42926	10.16283	-644.37170	-708.73676	7.94894	496.14014	733.35944	6.83249	505.91461	-14.05467	1308.12390	-961.86206	
845	8.440	-800.56213	8.80433	-638.83124	769.37115	10.14145	-644.40125	-708.71240	8.05732	496.11670	733.27637	6.79435	505.90417	-14.08302	1308.12732	-961.91882	
846	8.450	-800.46753	8.91695	-638.88342	769.43262	10.17857	-644.33386	-708.71997	8.08718	496.08646	733.44531	6.92807	505.93195	-14.09682	1308.25549	-961.89966	
847	8.460	-800.52216	8.92595	-638.84149	769.37378	10.22539	-644.41876	-708.73767	8.13152	496.09338	733.46576	6.89331	505.86319	-14.14805	1308.27649	-961.89447	
848	8.470	-800.59076	8.84364	-638.76007	769.41351	10.26484	-644.38696	-708.76324	8.05270	496.12955	733.37927	6.83413	505.85416	-14.05969	1308.21436	-961.76227	
849	8.480	-800.60913	8.81601	-638.81543	769.38141	10.20419	-644.43091	-708.75507	8.05395	496.11029	733.38470	6.80669	505.83450	-14.03496	1308.11157	-961.71930	
850	8.490	-800.58319	8.72414	-638.86859	769.34265	10.21711	-644.38507	-708.69617	8.03505	496.15125	733.34595	6.84585	505.85080	-14.05720	1308.06812	-961.71002	
851	8.500	-800.51196	8.86614	-638.90466	769.35413	10.21760	-644.40735	-708.69073	8.06288	496.12042	733.48871	6.94718	505.86694	-14.07684	1308.12939	-961.82684	
852	8.510	-800.53363	8.91097	-638.80316	769.31573	10.24262	-644.45282	-708.71552	8.11605	496.09863	733.27356	6.76976	505.73785	-14.06260	1308.16687	-961.88721	
853	8.520	-800.58875	8.90821	-638.78235	769.38623	10.25105	-644.45642	-708.68823	8.06367	496.13443	733.03790	6.61484	505.54559	-14.03227	1308.21143	-962.02789	
854	8.530	-800.63538	8.87654	-638.73932	769.31641	10.26639	-644.47235	-708.78290	8.02002	496.13287	732.96344	6.60065	505.50351	-13.99500	1308.18481	-962.04395	
855	8.540	-800.53180	8.93020	-638.77698	769.35516	10.25740	-644.45245	-708.77002	8.00970	496.12796	732.93311	6.64667	505.50897	-14.06890	1308.16016	-961.97107	
856	8.550	-800.48279	9.15825	-638.85101	769.31879	10.29647	-644.42755	-708.18250	7.46759	496.08484	733.03577	6.71388	505.57150	-14.02370	1308.08203	-961.90271	
857	8.560	-800.47400	9.05433	-638.83813	769.43750	10.12078	-644.33514	-708.12158	7.41336	496.14185	733.00519	6.67209	505.47681	-14.06862	1308.19910	-961.81641	
858	8.570	-800.61847	8.84669	-638.75745	769.52179	9.84382	-644.23334	-708.14270	7.37013	496.18134	732.90363	6.60519	505.40390	-14.25105	1308.17249	-961.74841	
859	8.580	-800.62592	8.65585	-638.84753	769.35022	10.08709	-644.37018	-708.38281	7.60069	496.04013	732.84131	6.54308	505.39551	-14.03977	1308.04785	-961.60956	
860	8.590	-800.63586	8.81564	-638.76282	769.42169	10.14776	-644.39935	-708.48352	7.60028	495.95178	732.82458	6.48637	505.39914	-13.96317	1307.96252	-961.51599	
861	8.600	-800.52191	9.00543	-638.77313	769.43353	10.09091	-644.33105	-708.51575	7.60834	496.11450	732.82117	6.55799	505.40317	-14.17727	1308.07239	-961.64606	
862	8.610	-800.42938	9.12955	-638.79620	769.43634	10.06277	-644.36383	-708.53973	7.76735	496.11835	732.89911	6.64891	505.40039	-14.11887	1308.20691	-961.82141	
863	8.620	-800.53003	9.03011	-638.78271	769.43823	10.12924	-644.37933	-708.52399	7.81727	496.12518	733.01501	6.68952	505.44223	-14.09619	1308.28198	-961.92059	
864	8.630	-800.56348	8.80349	-638.85217	769.45911	10.14705	-644.34564	-708.59735	7.70553	496.11340	732.94751	6.68487	505.41168	-14.07573	1308.19141	-962.02576	
865	8.640	-800.58807	8.83213	-638.83539	769.35004	10.09463	-644.36761	-708.61133	7.51671	496.11823	732.88928	6.61922	505.44055	-14.11207	1308.13269	-961.98633	
866	8.650	-800.58002	9.07564	-638.73779	769.38782	10.05984	-644.34583	-708.79828	7.90519	496.07144	733.02014	6.70089	505.55148	-14.04861	1308.08936	-961.94867	
867	8.660	-800.41779	9.06419	-638.80109	769.34113	10.16378	-644.34338	-708.67078	7.96386	496.08368	733.07843	6.74465	505.54874	-14.12251	1308.18958	-961.93195	
868	8.670	-800.46393	9.06747	-638.83276	769.46283	10.18290	-644.37091	-708.69214	8.07924	496.06665	733.17523	6.81530	505.49844	-14.20876	1308.24243	-961.75006	
